<?xml version="1.0" encoding="UTF-8"?>
<svg version="1.1" xmlns="http://www.w3.org/2000/svg" width="184" height="180">
<path d="M0 0 C60.72 0 121.44 0 184 0 C184 59.4 184 118.8 184 180 C123.28 180 62.56 180 0 180 C0 120.6 0 61.2 0 0 Z " fill="#FEFEFE" transform="translate(0,0)"/>
<path d="M0 0 C60.72 0 121.44 0 184 0 C184 59.4 184 118.8 184 180 C123.28 180 62.56 180 0 180 C0 120.6 0 61.2 0 0 Z M27.6875 29.9375 C15.66313506 42.55201782 11.69571776 57.07069499 11.6640625 74.125 C11.6574057 75.38530029 11.6507489 76.64560059 11.64389038 77.9440918 C11.63379022 80.60691493 11.62820386 83.26932954 11.62939453 85.93212891 C11.62955639 88.62999484 11.61577531 91.32717677 11.58837891 94.02490234 C11.36065366 118.17265039 12.33161906 138.16391117 30.06640625 156.265625 C43.22036652 168.97805985 58.84137377 172.31414077 76.49609375 172.30078125 C77.76542252 172.30506638 79.03475128 172.3093515 80.34254456 172.31376648 C83.01439468 172.31948374 85.68585514 172.32097629 88.35766602 172.31567383 C91.75090354 172.30988124 95.14359483 172.32683054 98.53674221 172.3500185 C101.81485424 172.36844426 105.09293939 172.36456771 108.37109375 172.36328125 C110.17470619 172.37709587 110.17470619 172.37709587 112.01475525 172.39118958 C129.11859052 172.29839743 144.3055626 165.9764753 156.37109375 153.89453125 C168.55804336 140.47621081 172.30380183 125.14344757 172.3359375 107.453125 C172.3425943 106.16492859 172.3492511 104.87673218 172.35610962 103.54949951 C172.36801707 100.83309578 172.37179732 98.11681857 172.37060547 95.40039062 C172.37040282 91.9567464 172.39767729 88.51393239 172.43214989 85.07048416 C172.46002941 81.73968919 172.45857486 78.40903458 172.4609375 75.078125 C172.48249405 73.25248016 172.48249405 73.25248016 172.50448608 71.38995361 C172.41889693 55.09887733 166.52374853 41.1077809 155.37109375 29.296875 C150.3911901 24.47284971 145.56222883 20.38626503 139 18 C139.37511719 18.44988281 139.75023437 18.89976563 140.13671875 19.36328125 C147.37829728 28.46541648 149.89820856 36.44014706 152 48 C112.4 48 72.8 48 32 48 C34.78215395 35.01661492 37.54575943 28.0099802 45 18 C39.03406765 18 31.82929057 25.95593344 27.6875 29.9375 Z " fill="#131313" transform="translate(0,0)"/>
<path d="M0 0 C60.72 0 121.44 0 184 0 C184 59.4 184 118.8 184 180 C163.21 180 142.42 180 121 180 C121 179.67 121 179.34 121 179 C121.825 178.87625 122.65 178.7525 123.5 178.625 C138.27224136 175.98709976 150.55848198 169.90817804 161 159 C161.62003906 158.41089844 162.24007812 157.82179687 162.87890625 157.21484375 C166.94745432 153.07348051 169.61561462 148.37201339 172.25 143.25 C172.5795166 142.61892334 172.9090332 141.98784668 173.24853516 141.33764648 C178.38160707 130.86801771 179.44860277 120.32674304 179.36328125 108.80078125 C179.36377975 107.48514694 179.36427826 106.16951263 179.36479187 104.81401062 C179.36470297 102.05158743 179.35444021 99.28946108 179.33618164 96.52709961 C179.31343005 93.01049895 179.31297144 89.49432769 179.31969929 85.97767353 C179.32386678 82.58532831 179.3118545 79.19311179 179.30078125 75.80078125 C179.30214836 73.92547478 179.30214836 73.92547478 179.30354309 72.01228333 C179.15749354 53.90391321 173.19970534 36.89282522 160.4375 23.75 C145.81472396 9.38900687 127.95158818 4.88427248 107.97265625 4.76171875 C106.08008339 4.74961113 106.08008339 4.74961113 104.14927673 4.73725891 C101.48058442 4.72345506 98.81201395 4.71242978 96.14331055 4.70483398 C93.43865107 4.69602007 90.73451307 4.67524487 88.0300293 4.64331055 C61.69731783 4.35510784 42.04513047 6.60279854 22.3125 25.3125 C8.77903067 39.19963143 4.86259345 56.37887774 4.796875 75.09765625 C4.79117493 76.36411484 4.78547485 77.63057343 4.77960205 78.93540955 C4.77017428 81.61249369 4.76326643 84.2894664 4.75976562 86.96655273 C4.75431119 90.3561839 4.73032981 93.74540726 4.70179367 97.13491154 C4.67840163 100.41412756 4.67669975 103.6933686 4.671875 106.97265625 C4.6595282 108.16899185 4.6471814 109.36532745 4.63446045 110.59791565 C4.66355085 121.81856098 6.23414085 133.08378898 11.5 143.125 C11.84039307 143.78749756 12.18078613 144.44999512 12.53149414 145.13256836 C20.42660787 159.71964723 33.58817903 170.22712722 49 176 C53.30200581 177.20076972 57.61010661 178.18093642 62 179 C62 179.33 62 179.66 62 180 C41.54 180 21.08 180 0 180 C0 120.6 0 61.2 0 0 Z " fill="#FCFCFC" transform="translate(0,0)"/>
<path d="M0 0 C4.33976986 2.25334204 7.09688482 4.45366929 9 9 C9.5942753 12.5656518 9.72352308 14.85328418 7.7578125 17.96875 C5.27613789 20.98133013 3.76597718 22.74467427 0 24 C-7.03361345 24.56722689 -7.03361345 24.56722689 -10.875 22.3125 C-14.11909315 18.78216334 -14.88792981 16.25518614 -15.3125 11.5 C-14.97170637 7.68311135 -14.38788303 5.96426858 -12 3 C-8.06805815 -0.1673976 -4.97806095 -0.61134082 0 0 Z " fill="#161616" transform="translate(135,78)"/>
<path d="M0 0 C4.33976986 2.25334204 7.09688482 4.45366929 9 9 C9.5942753 12.5656518 9.72352308 14.85328418 7.7578125 17.96875 C5.27613789 20.98133013 3.76597718 22.74467427 0 24 C-7.03361345 24.56722689 -7.03361345 24.56722689 -10.875 22.3125 C-14.11909315 18.78216334 -14.88792981 16.25518614 -15.3125 11.5 C-14.97170637 7.68311135 -14.38788303 5.96426858 -12 3 C-8.06805815 -0.1673976 -4.97806095 -0.61134082 0 0 Z " fill="#161616" transform="translate(91,78)"/>
</svg>
